<svg height="305" width="255" version="1.1" xmlns="http://www.w3.org/2000/svg">
  <defs></defs>
  <g transform="translate(-122.62 -335.06)">
    <g transform="matrix(3.9483 0 0 -3.9483 263.23 518.98)">
      <path d="m0 0c0-7.534-6.107-13.642-13.641-13.642-7.535 0-13.642 6.108-13.642 13.642s6.107 13.642 13.642 13.642c7.534 0 13.641-6.108 13.641-13.642" fill="#f60"></path>
    </g>
    <g transform="matrix(3.9483 0 0 -3.9483 369.76 443.57)">
      <path d="m0 0c0-7.533-6.107-13.642-13.641-13.642-7.535 0-13.642 6.109-13.642 13.642 0 7.534 6.107 13.643 13.642 13.643 7.534 0 13.641-6.109 13.641-13.643" fill="#fc0"></path>
    </g>
    <g transform="matrix(3.9483 0 0 -3.9483 238.1 442.38)">
      <path d="m0 0c0-7.533-6.107-13.642-13.642-13.642-7.533 0-13.641 6.109-13.641 13.642 0 7.534 6.108 13.643 13.641 13.643 7.535 0 13.642-6.109 13.642-13.643" fill="#0089cc"></path>
    </g>
    <g transform="matrix(3.9483 0 0 -3.9483 345.82 518.98)">
      <path d="m0 0c0-7.534-6.107-13.642-13.643-13.642-7.533 0-13.641 6.108-13.641 13.642s6.108 13.642 13.641 13.642c7.536 0 13.643-6.108 13.643-13.642" fill="#009939"></path>
    </g>
    <g transform="matrix(3.9483 0 0 -3.9483 303.93 394.5)">
      <path d="m0 0c0-7.534-6.108-13.642-13.642-13.642s-13.642 6.108-13.642 13.642 6.108 13.642 13.642 13.642 13.642-6.108 13.642-13.642" fill="#bf0000"></path>
    </g>
    <g transform="matrix(3.9483 0 0 -3.9483 262.04 443.57)">
      <path d="m0 0c0-0.287 0.025-0.568 0.043-0.851 6.051 1.396 10.567 6.806 10.567 13.281 0 0.287-0.025 0.569-0.043 0.852-6.051-1.397-10.567-6.807-10.567-13.282" fill="#fc0007"></path>
    </g>
    <g transform="matrix(3.9483 0 0 -3.9483 269.15 470.24)">
      <path d="m0 0c2.351-4.11 6.769-6.887 11.843-6.887 2.068 0 4.021 0.474 5.778 1.298-2.35 4.11-6.768 6.887-11.843 6.887-2.068 0-4.021-0.474-5.778-1.298" fill="#1cd306"></path>
    </g>
    <g transform="matrix(3.9483 0 0 -3.9483 238.1 518.98)">
      <path d="m0 0c0-3.333 1.198-6.383 3.184-8.752 1.984 2.369 3.182 5.419 3.182 8.752s-1.198 6.383-3.182 8.752c-1.986-2.369-3.184-5.419-3.184-8.752" fill="#0f7504"></path>
    </g>
    <g transform="matrix(3.9483 0 0 -3.9483 162.91 491.83)">
      <path d="m0 0c1.657-0.716 3.481-1.117 5.401-1.117 5.024 0 9.401 2.723 11.769 6.766-1.657 0.716-3.482 1.116-5.401 1.116-5.024 0-9.402-2.723-11.769-6.765" fill="#0c5e87"></path>
    </g>
    <g transform="matrix(3.9483 0 0 -3.9483 196.44 389.95)">
      <path d="m0 0c-0.032-0.38-0.059-0.762-0.059-1.151 0-6.47 4.509-11.875 10.553-13.277 0.031 0.38 0.058 0.762 0.058 1.15 0 6.47-4.508 11.877-10.552 13.278" fill="#6b0001"></path>
    </g>
    <g transform="matrix(3.9483 0 0 -3.9483 201.47 512.31)">
      <path d="m0 0h-2.134c-1.884 0-3.416 1.527-3.416 3.406v19.316c0 1.879 1.532 3.407 3.416 3.407h26.759c1.884 0 3.415-1.528 3.415-3.407v-19.316c0-1.879-1.531-3.406-3.415-3.406h-9.116l-18.29-8.966 2.781 8.966z" fill="#fff"></path>
    </g>
  </g>
</svg>